<?xml version="1.0" standalone="no"?>
<!DOCTYPE svg PUBLIC "-//W3C//DTD SVG 20010904//EN"
 "http://www.w3.org/TR/2001/REC-SVG-20010904/DTD/svg10.dtd">
<svg version="1.0" xmlns="http://www.w3.org/2000/svg"
 width="320.000000pt" height="320.000000pt" viewBox="0 0 320.000000 320.000000"
 preserveAspectRatio="xMidYMid meet">
<metadata>
Created by potrace 1.14, written by Peter Selinger 2001-2017
</metadata>
<g transform="translate(0.000000,320.000000) scale(0.100000,-0.100000)"
fill="#000000" stroke="none">
<path d="M1324 3160 c-10 -4 -27 -6 -36 -4 -10 1 -18 -1 -18 -4 0 -4 -17 -8
-38 -10 -20 -1 -39 -7 -40 -12 -2 -6 -8 -8 -13 -4 -5 3 -15 2 -21 -3 -7 -4
-22 -9 -33 -10 -33 -5 -109 -36 -117 -47 -5 -7 -8 -5 -8 4 -1 12 -3 11 -11 -2
-5 -10 -17 -18 -25 -18 -8 0 -17 -7 -20 -15 -4 -8 -10 -12 -15 -9 -5 3 -12 -2
-15 -10 -3 -8 -14 -18 -24 -21 -11 -3 -22 -15 -25 -25 -3 -11 -12 -19 -18 -17
-7 1 -11 -4 -9 -11 1 -6 -1 -11 -6 -10 -10 4 -76 -63 -85 -85 -4 -11 -12 -15
-18 -11 -7 4 -9 3 -6 -3 4 -6 -11 -29 -33 -52 -22 -23 -40 -46 -40 -50 0 -5
-6 -14 -14 -20 -8 -7 -24 -32 -35 -57 -12 -24 -26 -44 -33 -44 -6 0 -9 -3 -5
-6 3 -4 0 -22 -8 -40 -8 -19 -11 -34 -7 -34 3 0 1 -5 -6 -12 -7 -7 -12 -22
-12 -34 0 -13 -5 -26 -11 -29 -6 -4 -8 -13 -5 -20 2 -7 2 -16 -2 -19 -6 -7 -7
-10 -17 -61 -3 -16 -8 -41 -12 -55 -3 -14 -5 -29 -4 -35 9 -33 9 -45 0 -45 -6
0 -7 -6 -2 -12 8 -14 10 -37 16 -156 2 -40 7 -75 10 -79 4 -3 7 -16 7 -28 0
-11 5 -26 12 -33 7 -7 9 -12 5 -12 -8 0 41 -141 54 -155 5 -5 9 -17 9 -27 0
-10 5 -18 10 -18 6 0 10 -7 10 -15 0 -8 4 -15 10 -15 5 0 9 -3 8 -7 -3 -9 32
-65 47 -75 5 -4 6 -8 2 -8 -5 0 -2 -6 5 -14 7 -8 38 -46 68 -85 30 -39 61 -70
69 -71 8 0 12 -3 8 -6 -3 -3 5 -16 18 -28 13 -11 26 -28 27 -36 2 -8 23 -32
46 -55 127 -117 126 -117 111 -126 -17 -9 -63 -20 -91 -22 -10 -1 -18 -6 -18
-12 0 -5 -4 -4 -8 2 -6 10 -17 8 -45 -7 -20 -11 -37 -18 -37 -15 0 3 -13 -1
-30 -10 -16 -9 -30 -13 -30 -9 0 4 -6 1 -13 -5 -8 -6 -16 -9 -19 -6 -3 3 -11
-1 -17 -9 -7 -8 -19 -12 -27 -9 -8 3 -14 1 -14 -4 0 -5 -10 -9 -22 -10 -11 -1
-24 -7 -28 -13 -4 -7 -9 -10 -11 -8 -8 5 -89 -35 -89 -44 0 -5 -4 -6 -10 -3
-5 3 -10 2 -10 -3 0 -10 -37 -25 -53 -23 -5 1 -6 -2 -4 -6 3 -5 -1 -14 -9 -21
-8 -7 -14 -10 -14 -6 0 3 -12 -8 -27 -25 -15 -17 -33 -31 -40 -31 -7 0 -13 -4
-13 -10 0 -5 -6 -10 -14 -10 -8 0 -17 -7 -20 -16 -3 -8 -10 -13 -14 -10 -4 3
-16 -6 -26 -20 -11 -13 -24 -24 -31 -24 -7 0 -16 -7 -19 -16 -3 -8 -10 -12
-16 -9 -5 3 -10 1 -10 -5 0 -6 -12 -22 -27 -35 -44 -37 -84 -122 -89 -191 -2
-22 -4 -45 -5 -50 -1 -5 0 -11 1 -14 1 -3 3 -19 5 -36 6 -55 66 -144 98 -144
7 0 18 -5 23 -10 6 -6 37 -12 70 -13 32 -1 62 -6 66 -12 5 -7 8 -6 8 1 0 11
95 13 106 1 4 -3 16 -1 28 5 25 14 26 13 37 -4 7 -10 9 -10 9 0 0 9 5 10 19 3
10 -6 21 -7 25 -3 4 3 10 2 14 -3 4 -6 30 -22 57 -36 36 -18 64 -25 100 -24
48 2 104 18 115 33 3 4 18 16 34 26 24 15 32 16 52 5 27 -14 31 -37 9 -45 -8
-4 -12 -10 -9 -15 3 -5 0 -9 -5 -9 -23 0 -10 -28 15 -34 15 -4 33 -14 41 -22
8 -8 19 -12 24 -9 5 4 9 2 9 -2 0 -5 12 -10 27 -11 15 -1 29 -6 32 -10 3 -4
31 -14 61 -21 30 -8 59 -16 65 -19 9 -5 37 -10 93 -14 12 -1 22 -5 22 -9 0 -3
13 -5 30 -3 16 2 32 -1 36 -7 4 -8 9 -7 15 2 8 12 10 12 18 0 5 -7 11 -9 14
-4 3 4 37 6 76 3 39 -3 71 -3 71 0 0 3 20 5 45 4 25 -1 48 2 51 7 3 5 11 6 17
2 17 -11 37 -13 37 -4 0 4 17 8 37 9 20 1 39 5 42 9 3 5 13 9 21 9 18 2 52 10
105 24 22 6 50 14 63 17 12 3 22 10 22 15 0 5 4 7 8 4 5 -3 21 2 36 10 16 7
34 14 42 14 7 0 22 10 33 21 18 19 18 24 5 44 -17 26 -10 51 16 58 17 4 90
-37 98 -55 2 -5 13 -8 23 -8 11 0 18 -4 15 -9 -3 -4 6 -6 21 -3 19 4 24 2 18
-8 -6 -9 -4 -11 6 -5 7 5 32 10 54 11 60 4 72 8 102 32 15 12 30 23 33 23 42
9 86 10 130 4 64 -10 135 -5 173 11 20 10 37 21 37 26 0 4 7 8 16 8 8 0 12 5
9 10 -3 6 1 10 9 10 9 0 16 7 16 15 0 8 4 15 9 15 11 0 57 91 53 104 -2 4 2
13 7 20 6 6 6 18 2 25 -5 8 -5 27 -1 42 5 16 5 29 1 29 -4 0 -9 15 -10 33 -4
57 -7 76 -14 83 -4 4 -7 16 -7 26 0 10 -4 18 -10 18 -5 0 -10 9 -10 20 0 11
-5 20 -11 20 -5 0 -7 5 -4 10 3 6 2 10 -3 10 -5 0 -9 6 -9 13 0 19 -51 95 -89
133 -37 37 -96 74 -119 74 -8 0 -15 5 -15 11 0 5 -4 7 -10 4 -5 -3 -10 -2 -10
3 0 6 -13 9 -30 8 -16 -1 -31 2 -33 7 -1 5 -24 9 -50 10 -26 1 -47 6 -47 11 0
5 -7 3 -15 -4 -11 -9 -15 -9 -15 -1 0 9 -5 9 -21 0 -17 -9 -20 -8 -14 2 6 8 4
10 -6 4 -21 -14 -91 -13 -118 1 -14 7 -28 11 -33 8 -4 -3 -8 -2 -8 3 0 4 -15
14 -32 22 -18 8 -35 17 -38 20 -19 22 -62 53 -56 41 5 -9 2 -8 -7 2 -8 10 -17
15 -20 11 -4 -3 -7 -1 -7 5 0 7 -3 11 -7 11 -28 -5 -41 11 -49 60 -4 20 7 42
17 35 5 -3 9 2 9 11 0 9 5 13 10 10 6 -3 10 1 10 9 0 9 4 15 8 14 5 -2 27 14
50 35 23 20 40 37 37 37 -2 0 18 22 44 49 27 28 46 52 43 55 -3 3 0 6 6 6 7 0
12 7 12 16 0 8 5 12 10 9 6 -3 10 1 10 11 0 9 10 25 22 35 11 11 18 19 14 19
-4 0 2 10 13 22 11 11 18 25 15 30 -3 4 0 8 6 8 5 0 22 26 37 58 15 31 32 60
38 64 6 5 6 8 -2 8 -9 0 -6 11 7 36 11 19 18 39 15 45 -4 5 -2 9 4 9 6 0 14
12 17 28 4 15 9 32 13 37 3 6 6 15 7 22 1 7 9 42 19 78 9 36 13 69 10 74 -3 5
-2 12 2 14 12 7 5 138 -12 257 -2 14 -7 45 -10 70 -4 25 -11 47 -16 48 -5 2
-9 17 -9 33 0 16 -4 29 -10 29 -5 0 -10 7 -10 16 0 22 -40 95 -64 117 -10 9
-16 17 -12 17 3 0 -8 16 -26 36 -47 52 -49 54 -108 104 -66 55 -106 89 -131
113 -10 9 -23 17 -27 17 -5 0 -17 9 -27 20 -10 11 -24 20 -32 20 -7 0 -13 4
-13 9 0 5 -13 14 -30 21 -16 7 -30 17 -30 22 0 5 -4 6 -10 3 -5 -3 -10 -1 -10
5 0 6 -4 8 -10 5 -5 -3 -10 -3 -10 2 0 8 -73 44 -115 58 -19 6 -104 14 -215
20 -30 1 -55 3 -55 5 0 1 -15 3 -32 4 -18 1 -33 -2 -33 -8 0 -8 -3 -8 -8 0 -8
11 -157 15 -188 4z"/>
</g>
</svg>
